# xmcd
#
# Track frame offsets:
# 150
# 17864
# 39749
# 64911
# 79629
# 96202
# 111049
# 131298
# 154629
# 171743
# 194919
# 215534
# 231827
# 252809
#
# Disc length: 3592 seconds
#
# Revision: 1
# Processed by: cddbd v1.5.1PL0 Copyright (c) Steve Scherf et al.
# Submitted via: CedeCatalogueitor 2.6.0.6 http://personales.ya.com/cdcatalogueitor
#
DISCID=c50e060e
DTITLE=Joan Manuel Serrat - Serrat...Eres único! Vol. 2
DYEAR=2005
DGENRE=
TTITLE0=Disculpe El Señor
TTITLE1=Cantares
TTITLE2=Ninyo Silvestre
TTITLE3=Para La Libertad
TTITLE4=Mediterraneo
TTITLE5=Hoy Puede Ser Un Gran Día
TTITLE6=Paraules D'amor
TTITLE7=Princesa
TTITLE8=Vagabundear
TTITLE9=Pueblo Blanco
TTITLE10=La Mujer Que Yo Quiero
TTITLE11=Campesina
TTITLE12=Sinceramente Tuyo
TTITLE13=Que Bonito Es Badalona
EXTD=
EXTT0=
EXTT1=
EXTT2=
EXTT3=
EXTT4=
EXTT5=
EXTT6=
EXTT7=
EXTT8=
EXTT9=
EXTT10=
EXTT11=
EXTT12=
EXTT13=
PLAYORDER=
